# xmcd
#
# Track frame offsets:
#	150
#	14245
#	31572
#	46390
#	59871
#	71308
#	87731
#	104163
#	120898
#	137820
#	152565
#	170120
#	187728
#	201689
#	217502
#	230889
#	247261
#	258806
#
# Disc length: 3644 seconds
#
# Revision: 0
# Processed by: cddbd v1.5.2PL0 Copyright (c) Steve Scherf et al.
# Submitted via: EasyCDDAExtractor 16.0.8.1
#
DISCID=0c0e3a12
DTITLE=Nu Country Traxx Volume 188 US
DYEAR=2014
DGENRE=country
TTITLE0=Luke Bryan\n - I See You\n
TTITLE1=Rascal Flatts\n - Riot\n
TTITLE2=Jason Aldean\n - Just Gettin' Started\n
TTITLE3=Garth Brooks\n - Mom\n
TTITLE4=Rodney Atkins\n - Eat Sleep Love You Repeat\n
TTITLE5=Blake Shelton ft. Ashley Monroe\n - Lonely Tonight\n
TTITLE6=Sam Hunt\n - Take Your Time\n
TTITLE7=Brantley Gilbert\n - One Hell Of An Amen\n
TTITLE8=Josh Dorr\n - Save Your Breath\n
TTITLE9=Hayley and Michaels\n - Just Another Love Song\n
TTITLE10=The Swon Brothers\n - Pray For You\n
TTITLE11=Logan Mize\n - Can't Get Away From A Good Time\n
TTITLE12=Florida Georgia Line\n - Sun Daze\n
TTITLE13=Chase Rice\n - Gonna Wanna Tonight\n
TTITLE14=Dylan Scott\n - Lay It On Me\n
TTITLE15=Darius Rucker\n - What God Wants For Christmas\n
TTITLE16=Kellie Pickler\n - The Man With The Bag\n
TTITLE17=The Roys\n - Bluegrass Kinda Christmas\n
EXTD=
EXTT0=
EXTT1=
EXTT2=
EXTT3=
EXTT4=
EXTT5=
EXTT6=
EXTT7=
EXTT8=
EXTT9=
EXTT10=
EXTT11=
EXTT12=
EXTT13=
EXTT14=
EXTT15=
EXTT16=
EXTT17=
PLAYORDER=
